<svg xmlns="http://www.w3.org/2000/svg" xmlns:xlink="http://www.w3.org/1999/xlink" width="500" zoomAndPan="magnify" viewBox="0 0 375 374.999991" height="500" preserveAspectRatio="xMidYMid meet" version="1.0"><defs><g/><clipPath id="12b0a889d4"><path d="M 37.5 133.679688 L 341.28125 133.679688 L 341.28125 136.410156 L 37.5 136.410156 Z M 338.492188 136.410156 L 341.28125 136.410156 L 341.28125 238.53125 L 338.492188 238.53125 Z M 37.5 136.410156 L 40.230469 136.410156 L 40.230469 238.53125 L 37.5 238.53125 Z M 37.5 238.53125 L 341.28125 238.53125 L 341.28125 241.320312 L 37.5 241.320312 Z M 37.5 238.53125 " clip-rule="nonzero"/></clipPath><clipPath id="c7232e2832"><path d="M 108.679688 200.804688 L 120.425781 200.804688 L 120.425781 212.546875 L 108.679688 212.546875 Z M 108.679688 200.804688 " clip-rule="nonzero"/></clipPath><clipPath id="3a98318d5c"><path d="M 114.550781 200.804688 C 111.308594 200.804688 108.679688 203.433594 108.679688 206.675781 C 108.679688 209.917969 111.308594 212.546875 114.550781 212.546875 C 117.796875 212.546875 120.425781 209.917969 120.425781 206.675781 C 120.425781 203.433594 117.796875 200.804688 114.550781 200.804688 " clip-rule="nonzero"/></clipPath><clipPath id="b8448a23f7"><path d="M 46.203125 147.453125 L 129.539062 147.453125 L 129.539062 230.789062 L 46.203125 230.789062 Z M 46.203125 147.453125 " clip-rule="nonzero"/></clipPath><clipPath id="a8f6fd48ff"><path d="M 87.871094 147.453125 C 64.859375 147.453125 46.203125 166.109375 46.203125 189.121094 C 46.203125 212.132812 64.859375 230.789062 87.871094 230.789062 C 110.886719 230.789062 129.539062 212.132812 129.539062 189.121094 C 129.539062 166.109375 110.886719 147.453125 87.871094 147.453125 " clip-rule="nonzero"/></clipPath><clipPath id="7f488ecd07"><path d="M 61 160.207031 L 115.382812 160.207031 L 115.382812 217.957031 L 61 217.957031 Z M 61 160.207031 " clip-rule="nonzero"/></clipPath></defs><g clip-path="url(#12b0a889d4)"><path fill="#d9d9d9" d="M 37.5 133.679688 L 341.3125 133.679688 L 341.3125 241.144531 L 37.5 241.144531 Z M 37.5 133.679688 " fill-opacity="1" fill-rule="nonzero"/></g><g clip-path="url(#c7232e2832)"><g clip-path="url(#3a98318d5c)"><path fill="#d9d9d9" d="M 108.679688 200.804688 L 120.425781 200.804688 L 120.425781 212.546875 L 108.679688 212.546875 Z M 108.679688 200.804688 " fill-opacity="1" fill-rule="nonzero"/></g></g><path stroke-linecap="butt" transform="matrix(0.000000000000000046, -0.752098, 0.75, 0.000000000000000046, 145.988345, 220.533149)" fill="none" stroke-linejoin="miter" d="M 0.00252456 1.999916 L 83.773354 1.999916 " stroke="#d9d9d9" stroke-width="4" stroke-opacity="1" stroke-miterlimit="4"/><g clip-path="url(#b8448a23f7)"><g clip-path="url(#a8f6fd48ff)"><path fill="#d9d9d9" d="M 46.203125 147.453125 L 129.539062 147.453125 L 129.539062 230.789062 L 46.203125 230.789062 Z M 46.203125 147.453125 " fill-opacity="1" fill-rule="nonzero"/></g></g><g clip-path="url(#7f488ecd07)"><path fill="#293041" d="M 108.433594 174.109375 C 103.980469 169.300781 97.9375 166.339844 91.414062 165.765625 L 91.339844 166.601562 C 104.5625 167.761719 114.535156 178.597656 114.535156 191.808594 C 114.535156 205.640625 103.308594 216.914062 89.4375 217.109375 L 89.4375 200.679688 L 88.59375 200.679688 L 88.59375 217.109375 C 74.769531 216.855469 63.601562 205.601562 63.601562 191.808594 C 63.601562 191.511719 63.609375 191.210938 63.617188 190.917969 C 63.75 190.925781 63.90625 190.929688 64.085938 190.929688 C 65.046875 190.929688 66.648438 190.769531 68.667969 189.976562 C 71.660156 188.796875 76.1875 185.921875 80.757812 178.910156 C 89.5 165.503906 88.140625 160.710938 88.078125 160.515625 L 87.984375 160.210938 L 87.664062 160.222656 C 87.507812 160.226562 83.851562 160.363281 79.265625 161.664062 C 75.011719 162.867188 69.160156 165.34375 65.421875 170.296875 C 61.523438 175.464844 60.628906 182.28125 62.757812 190.554688 L 62.785156 190.65625 C 62.769531 191.039062 62.757812 191.421875 62.757812 191.808594 C 62.757812 206.222656 74.5625 217.949219 89.070312 217.949219 C 103.574219 217.949219 115.378906 206.222656 115.378906 191.808594 C 115.378906 185.230469 112.910156 178.945312 108.433594 174.109375 Z M 66.09375 170.800781 C 72.367188 162.480469 85.003906 161.238281 87.320312 161.078125 C 87.4375 162.324219 87.289062 167.359375 80.054688 178.453125 C 75.628906 185.238281 71.285156 188.027344 68.425781 189.171875 C 66.140625 190.082031 64.414062 190.121094 63.660156 190.078125 C 64.085938 183.753906 66.824219 177.917969 71.488281 173.496094 L 70.910156 172.890625 C 66.601562 176.976562 63.882812 182.226562 63.039062 187.960938 C 61.710938 181.019531 62.734375 175.257812 66.09375 170.800781 Z M 66.09375 170.800781 " fill-opacity="1" fill-rule="nonzero"/></g><path fill="#293041" d="M 91.433594 194.09375 C 89.699219 195.617188 89.800781 197.953125 89.804688 198.050781 L 89.820312 198.347656 L 90.109375 198.429688 C 90.761719 198.617188 91.390625 198.710938 91.984375 198.710938 C 92.90625 198.710938 93.757812 198.484375 94.523438 198.035156 C 96.878906 196.652344 97.574219 193.664062 97.605469 193.535156 L 97.703125 193.109375 L 97.265625 193.03125 C 94.703125 192.585938 92.742188 192.945312 91.433594 194.09375 Z M 94.09375 197.316406 C 93.117188 197.890625 91.960938 198.019531 90.652344 197.707031 C 90.6875 197.097656 90.898438 195.679688 91.996094 194.714844 C 93.027344 193.8125 94.59375 193.5 96.65625 193.785156 C 96.386719 194.609375 95.640625 196.410156 94.09375 197.316406 Z M 94.09375 197.316406 " fill-opacity="1" fill-rule="nonzero"/><path fill="#293041" d="M 86.386719 189.652344 C 86.734375 191.925781 88.761719 193.105469 88.847656 193.15625 L 89.109375 193.304688 L 89.335938 193.109375 C 90.644531 191.976562 91.339844 190.664062 91.398438 189.207031 C 91.503906 186.492188 89.355469 184.289062 89.265625 184.195312 L 88.953125 183.882812 L 88.65625 184.207031 C 86.886719 186.105469 86.121094 187.933594 86.386719 189.652344 Z M 88.957031 185.125 C 89.507812 185.796875 90.625 187.394531 90.554688 189.179688 C 90.507812 190.308594 89.992188 191.34375 89.015625 192.265625 C 88.519531 191.90625 87.4375 190.972656 87.21875 189.523438 C 87.011719 188.171875 87.59375 186.695312 88.957031 185.125 Z M 88.957031 185.125 " fill-opacity="1" fill-rule="nonzero"/><path fill="#293041" d="M 88.214844 198.347656 L 88.226562 198.050781 C 88.234375 197.953125 88.335938 195.617188 86.601562 194.09375 C 85.292969 192.945312 83.328125 192.585938 80.765625 193.035156 L 80.332031 193.109375 L 80.429688 193.539062 C 80.457031 193.664062 81.15625 196.652344 83.507812 198.035156 C 84.273438 198.488281 85.125 198.710938 86.046875 198.710938 C 86.644531 198.710938 87.269531 198.621094 87.925781 198.429688 Z M 83.941406 197.316406 C 82.394531 196.410156 81.648438 194.609375 81.378906 193.785156 C 83.441406 193.5 85.007812 193.8125 86.039062 194.714844 C 87.136719 195.679688 87.34375 197.097656 87.382812 197.707031 C 86.074219 198.019531 84.917969 197.890625 83.941406 197.316406 Z M 83.941406 197.316406 " fill-opacity="1" fill-rule="nonzero"/><path fill="#293041" d="M 80.109375 200.28125 L 82.898438 203.78125 C 84.070312 205.253906 84.789062 207.195312 85.480469 209.070312 C 85.734375 209.757812 85.996094 210.46875 86.269531 211.128906 L 87.050781 210.808594 C 86.777344 210.164062 86.53125 209.492188 86.269531 208.785156 C 85.554688 206.84375 84.816406 204.839844 83.5625 203.261719 L 80.769531 199.761719 C 79.851562 198.605469 78.179688 198.382812 76.988281 199.226562 L 74.28125 191.496094 C 73.972656 190.613281 73.046875 190.109375 72.128906 190.328125 C 71.183594 190.550781 70.582031 191.472656 70.757812 192.425781 C 70.757812 192.425781 71.828125 197.941406 71.835938 197.984375 C 72.394531 200.855469 73.410156 203.472656 74.855469 205.757812 C 75.609375 206.949219 76.496094 208.074219 77.492188 209.113281 C 77.941406 209.578125 78.738281 210.824219 79.289062 211.78125 L 80.019531 211.367188 C 79.425781 210.332031 78.601562 209.054688 78.101562 208.53125 C 77.140625 207.539062 76.289062 206.453125 75.566406 205.3125 C 74.179688 203.117188 73.203125 200.597656 72.664062 197.835938 C 72.664062 197.828125 72.664062 197.828125 71.582031 192.273438 C 71.488281 191.757812 71.816406 191.261719 72.324219 191.144531 C 72.820312 191.027344 73.316406 191.296875 73.484375 191.773438 L 76.644531 200.558594 L 80.753906 205.714844 L 81.414062 205.195312 L 77.304688 200.039062 L 77.394531 199.96875 C 78.230469 199.308594 79.449219 199.449219 80.109375 200.28125 Z M 80.109375 200.28125 " fill-opacity="1" fill-rule="nonzero"/><path fill="#293041" d="M 106.007812 190.328125 C 105.089844 190.113281 104.167969 190.613281 103.859375 191.5 L 101.152344 199.226562 C 100.589844 198.828125 99.910156 198.65625 99.222656 198.734375 C 98.484375 198.820312 97.828125 199.1875 97.367188 199.761719 L 94.578125 203.265625 C 93.320312 204.839844 92.582031 206.84375 91.867188 208.785156 C 91.605469 209.492188 91.359375 210.164062 91.089844 210.808594 L 91.867188 211.128906 C 92.144531 210.46875 92.40625 209.757812 92.660156 209.074219 C 93.351562 207.195312 94.066406 205.253906 95.238281 203.785156 L 98.027344 200.28125 C 98.351562 199.878906 98.808594 199.625 99.320312 199.566406 C 99.835938 199.507812 100.339844 199.648438 100.742188 199.96875 L 100.832031 200.039062 L 96.722656 205.195312 L 97.382812 205.714844 L 101.492188 200.558594 L 104.65625 191.773438 C 104.820312 191.296875 105.320312 191.023438 105.816406 191.140625 C 106.324219 191.261719 106.648438 191.757812 106.554688 192.269531 C 106.554688 192.269531 105.53125 197.546875 105.480469 197.8125 L 105.476562 197.824219 C 104.9375 200.597656 103.960938 203.117188 102.570312 205.3125 C 101.847656 206.453125 100.996094 207.539062 100.039062 208.53125 C 99.535156 209.054688 98.710938 210.332031 98.117188 211.367188 L 98.847656 211.78125 C 99.398438 210.824219 100.195312 209.582031 100.648438 209.113281 C 101.644531 208.074219 102.53125 206.949219 103.285156 205.757812 C 104.730469 203.472656 105.746094 200.855469 106.304688 197.984375 C 106.324219 197.875 106.460938 197.179688 107.382812 192.421875 C 107.558594 191.472656 106.953125 190.554688 106.007812 190.328125 Z M 106.007812 190.328125 " fill-opacity="1" fill-rule="nonzero"/><g fill="#d9d9d9" fill-opacity="1"><g transform="translate(165.442786, 189.080964)"><g><path d="M 23.140625 0 L 18.203125 0 L 14.6875 -13.0625 L 11.125 0 L 6.15625 0 L -0.03125 -18.90625 L 5.109375 -18.90625 L 8.796875 -5 L 12.421875 -18.90625 L 17.125 -18.90625 L 20.8125 -5 L 24.46875 -18.90625 L 29.375 -18.90625 Z M 23.140625 0 "/></g></g></g><g fill="#d9d9d9" fill-opacity="1"><g transform="translate(194.629797, 189.080964)"><g><path d="M 19.328125 0 L 14.53125 0 L 14.53125 -7.34375 L 6.703125 -7.34375 L 6.703125 0 L 1.890625 0 L 1.890625 -18.90625 L 6.703125 -18.90625 L 6.703125 -11.125 L 14.53125 -11.125 L 14.53125 -18.90625 L 19.328125 -18.90625 Z M 19.328125 0 "/></g></g></g><g fill="#d9d9d9" fill-opacity="1"><g transform="translate(215.851799, 189.080964)"><g><path d="M 10.859375 -19.0625 C 13.785156 -19.0625 16.222656 -18.144531 18.171875 -16.3125 C 20.117188 -14.488281 21.09375 -12.210938 21.09375 -9.484375 C 21.09375 -6.722656 20.113281 -4.414062 18.15625 -2.5625 C 16.207031 -0.707031 13.773438 0.21875 10.859375 0.21875 C 7.941406 0.21875 5.507812 -0.703125 3.5625 -2.546875 C 1.613281 -4.390625 0.640625 -6.703125 0.640625 -9.484375 C 0.640625 -12.234375 1.613281 -14.515625 3.5625 -16.328125 C 5.507812 -18.148438 7.941406 -19.0625 10.859375 -19.0625 Z M 10.90625 -15.03125 C 9.425781 -15.03125 8.164062 -14.492188 7.125 -13.421875 C 6.082031 -12.359375 5.5625 -11.035156 5.5625 -9.453125 C 5.5625 -7.867188 6.085938 -6.53125 7.140625 -5.4375 C 8.191406 -4.351562 9.445312 -3.8125 10.90625 -3.8125 C 12.363281 -3.8125 13.597656 -4.351562 14.609375 -5.4375 C 15.628906 -6.53125 16.140625 -7.867188 16.140625 -9.453125 C 16.140625 -11.035156 15.628906 -12.359375 14.609375 -13.421875 C 13.597656 -14.492188 12.363281 -15.03125 10.90625 -15.03125 Z M 10.90625 -15.03125 "/></g></g></g><g fill="#d9d9d9" fill-opacity="1"><g transform="translate(237.586806, 189.080964)"><g><path d="M 6.703125 -4.015625 L 14.71875 -4.015625 L 14.71875 0 L 1.890625 0 L 1.890625 -18.90625 L 6.703125 -18.90625 Z M 6.703125 -4.015625 "/></g></g></g><g fill="#d9d9d9" fill-opacity="1"><g transform="translate(252.706808, 189.080964)"><g><path d="M 16.6875 -15.125 L 6.703125 -15.125 L 6.703125 -11.359375 L 15.71875 -11.359375 L 15.71875 -7.59375 L 6.703125 -7.59375 L 6.703125 -3.78125 L 16.984375 -3.78125 L 16.984375 0 L 1.890625 0 L 1.890625 -18.90625 L 16.6875 -18.90625 Z M 16.6875 -15.125 "/></g></g></g><g fill="#d9d9d9" fill-opacity="1"><g transform="translate(270.904813, 189.080964)"><g><path d="M 6.703125 -4.015625 L 14.71875 -4.015625 L 14.71875 0 L 1.890625 0 L 1.890625 -18.90625 L 6.703125 -18.90625 Z M 6.703125 -4.015625 "/></g></g></g><g fill="#d9d9d9" fill-opacity="1"><g transform="translate(286.024815, 189.080964)"><g><path d="M 6.703125 0 L 1.890625 0 L 1.890625 -18.90625 L 6.703125 -18.90625 Z M 6.703125 0 "/></g></g></g><g fill="#d9d9d9" fill-opacity="1"><g transform="translate(294.610812, 189.080964)"><g><path d="M 15.90625 -15.125 L 6.703125 -15.125 L 6.703125 -10.75 L 15.171875 -10.75 L 15.171875 -6.96875 L 6.703125 -6.96875 L 6.703125 0 L 1.890625 0 L 1.890625 -18.90625 L 15.90625 -18.90625 Z M 15.90625 -15.125 "/></g></g></g><g fill="#d9d9d9" fill-opacity="1"><g transform="translate(310.918814, 189.080964)"><g><path d="M 16.6875 -15.125 L 6.703125 -15.125 L 6.703125 -11.359375 L 15.71875 -11.359375 L 15.71875 -7.59375 L 6.703125 -7.59375 L 6.703125 -3.78125 L 16.984375 -3.78125 L 16.984375 0 L 1.890625 0 L 1.890625 -18.90625 L 16.6875 -18.90625 Z M 16.6875 -15.125 "/></g></g></g><g fill="#d9d9d9" fill-opacity="1"><g transform="translate(165.442786, 209.738775)"><g><path d="M 7.816406 -7.40625 C 7.804688 -7.558594 7.789062 -7.695312 7.757812 -7.816406 C 7.710938 -7.957031 7.664062 -8.078125 7.605469 -8.199219 C 7.542969 -8.320312 7.480469 -8.445312 7.40625 -8.550781 C 7.3125 -8.671875 7.222656 -8.78125 7.132812 -8.871094 C 7.023438 -8.964844 6.902344 -9.039062 6.796875 -9.117188 C 6.671875 -9.191406 6.566406 -9.253906 6.445312 -9.316406 C 6.304688 -9.375 6.167969 -9.40625 6.046875 -9.4375 C 5.910156 -9.484375 5.773438 -9.511719 5.648438 -9.527344 C 5.542969 -9.542969 5.40625 -9.558594 5.238281 -9.574219 C 5.117188 -9.589844 4.976562 -9.589844 4.824219 -9.605469 C 4.703125 -9.605469 4.566406 -9.621094 4.414062 -9.621094 C 4.277344 -9.621094 4.136719 -9.621094 4 -9.621094 C 3.863281 -9.636719 3.726562 -9.621094 3.589844 -9.621094 C 3.449219 -9.636719 3.3125 -9.652344 3.175781 -9.652344 C 3.039062 -9.652344 2.886719 -9.679688 2.765625 -9.679688 C 2.609375 -9.679688 2.472656 -9.652344 2.351562 -9.652344 C 2.183594 -9.652344 2.046875 -9.636719 1.9375 -9.636719 C 1.769531 -9.621094 1.648438 -9.621094 1.542969 -9.636719 C 1.34375 -9.636719 1.253906 -9.621094 1.222656 -9.484375 C 1.207031 -9.40625 1.207031 -9.269531 1.207031 -9.085938 C 1.207031 -8.964844 1.191406 -8.824219 1.191406 -8.671875 C 1.191406 -8.535156 1.175781 -8.398438 1.191406 -8.246094 C 1.191406 -8.125 1.191406 -7.972656 1.191406 -7.832031 C 1.191406 -7.695312 1.191406 -7.558594 1.191406 -7.40625 C 1.191406 -7.269531 1.207031 -7.132812 1.207031 -6.976562 C 1.207031 -6.855469 1.207031 -6.703125 1.207031 -6.566406 C 1.207031 -6.429688 1.222656 -6.292969 1.222656 -6.136719 C 1.222656 -6 1.207031 -5.863281 1.207031 -5.726562 C 1.207031 -5.589844 1.238281 -5.453125 1.238281 -5.296875 C 1.238281 -5.160156 1.207031 -5.023438 1.207031 -4.886719 C 1.207031 -4.75 1.253906 -4.597656 1.253906 -4.457031 C 1.253906 -4.320312 1.238281 -4.183594 1.238281 -4.046875 C 1.238281 -3.910156 1.238281 -3.773438 1.238281 -3.632812 C 1.238281 -3.480469 1.207031 -3.34375 1.207031 -3.207031 C 1.207031 -3.070312 1.222656 -2.933594 1.222656 -2.792969 C 1.222656 -2.640625 1.222656 -2.503906 1.222656 -2.367188 C 1.222656 -2.230469 1.222656 -2.09375 1.222656 -1.953125 C 1.222656 -1.800781 1.238281 -1.664062 1.238281 -1.527344 C 1.238281 -1.375 1.238281 -1.238281 1.238281 -1.113281 C 1.238281 -0.945312 1.265625 -0.808594 1.265625 -0.703125 C 1.28125 -0.566406 1.222656 -0.609375 1.238281 -0.289062 C 1.238281 -0.152344 1.34375 -0.0898438 1.433594 -0.0625 C 1.542969 -0.015625 1.664062 0.03125 1.742188 0.03125 C 1.894531 0.046875 2.273438 -0.015625 2.261719 -0.152344 C 2.246094 -0.289062 2.230469 -0.414062 2.230469 -0.535156 C 2.230469 -0.671875 2.230469 -0.777344 2.230469 -0.902344 C 2.230469 -0.976562 2.230469 -1.128906 2.214844 -1.328125 C 2.214844 -1.449219 2.230469 -1.589844 2.230469 -1.742188 C 2.214844 -1.878906 2.230469 -2.015625 2.230469 -2.167969 C 2.230469 -2.304688 2.199219 -2.441406 2.199219 -2.597656 C 2.199219 -2.734375 2.230469 -2.871094 2.230469 -3.007812 C 2.214844 -3.160156 2.199219 -3.296875 2.199219 -3.4375 C 2.199219 -3.589844 2.214844 -3.726562 2.214844 -3.863281 C 2.199219 -4.03125 2.199219 -4.167969 2.199219 -4.261719 C 2.304688 -4.261719 2.441406 -4.261719 2.609375 -4.277344 C 2.75 -4.277344 2.886719 -4.304688 3.039062 -4.304688 C 3.175781 -4.304688 3.328125 -4.304688 3.464844 -4.320312 C 3.617188 -4.320312 3.757812 -4.351562 3.910156 -4.351562 C 4.046875 -4.367188 4.199219 -4.367188 4.335938 -4.367188 C 4.472656 -4.382812 4.625 -4.367188 4.765625 -4.367188 C 4.917969 -4.367188 5.054688 -4.351562 5.191406 -4.351562 C 5.328125 -4.351562 5.464844 -4.398438 5.605469 -4.414062 C 5.742188 -4.429688 5.878906 -4.457031 6.015625 -4.503906 C 6.152344 -4.535156 6.277344 -4.582031 6.414062 -4.625 C 6.535156 -4.6875 6.65625 -4.765625 6.765625 -4.839844 C 6.886719 -4.917969 6.976562 -5.023438 7.070312 -5.117188 C 7.175781 -5.222656 7.269531 -5.3125 7.359375 -5.421875 C 7.4375 -5.542969 7.496094 -5.664062 7.558594 -5.789062 C 7.621094 -5.910156 7.710938 -6.03125 7.742188 -6.167969 C 7.789062 -6.292969 7.789062 -6.445312 7.804688 -6.582031 C 7.816406 -6.71875 7.847656 -6.855469 7.847656 -6.992188 C 7.847656 -7.144531 7.847656 -7.285156 7.816406 -7.40625 Z M 6.855469 -6.550781 C 6.824219 -6.398438 6.734375 -6.277344 6.65625 -6.152344 C 6.597656 -6.015625 6.519531 -5.894531 6.414062 -5.789062 C 6.304688 -5.695312 6.183594 -5.605469 6.0625 -5.527344 C 5.925781 -5.464844 5.789062 -5.40625 5.648438 -5.375 C 5.496094 -5.34375 5.34375 -5.328125 5.207031 -5.328125 C 5.085938 -5.328125 4.933594 -5.328125 4.78125 -5.328125 C 4.640625 -5.328125 4.488281 -5.34375 4.335938 -5.328125 C 4.199219 -5.328125 4.0625 -5.296875 3.910156 -5.285156 C 3.757812 -5.285156 3.617188 -5.3125 3.480469 -5.3125 C 3.328125 -5.296875 3.175781 -5.285156 3.039062 -5.285156 C 2.886719 -5.269531 2.75 -5.285156 2.625 -5.285156 C 2.441406 -5.285156 2.304688 -5.269531 2.199219 -5.269531 C 2.199219 -5.359375 2.199219 -5.496094 2.199219 -5.679688 C 2.199219 -5.816406 2.214844 -5.957031 2.214844 -6.125 C 2.199219 -6.261719 2.199219 -6.398438 2.199219 -6.550781 C 2.183594 -6.6875 2.199219 -6.839844 2.199219 -6.976562 C 2.199219 -7.132812 2.183594 -7.269531 2.183594 -7.421875 C 2.183594 -7.558594 2.183594 -7.710938 2.183594 -7.847656 C 2.183594 -8 2.167969 -8.152344 2.167969 -8.277344 C 2.167969 -8.460938 2.167969 -8.613281 2.167969 -8.703125 C 2.261719 -8.6875 2.414062 -8.71875 2.597656 -8.71875 C 2.734375 -8.71875 2.871094 -8.6875 3.039062 -8.6875 C 3.175781 -8.6875 3.328125 -8.734375 3.464844 -8.734375 C 3.617188 -8.734375 3.773438 -8.71875 3.910156 -8.71875 C 4.0625 -8.71875 4.199219 -8.71875 4.351562 -8.71875 C 4.503906 -8.71875 4.65625 -8.6875 4.78125 -8.6875 C 4.976562 -8.6875 5.128906 -8.6875 5.207031 -8.671875 C 5.328125 -8.65625 5.464844 -8.613281 5.632812 -8.566406 C 5.773438 -8.535156 5.894531 -8.476562 6.046875 -8.414062 C 6.167969 -8.351562 6.292969 -8.277344 6.414062 -8.183594 C 6.503906 -8.09375 6.597656 -7.972656 6.671875 -7.832031 C 6.75 -7.726562 6.824219 -7.589844 6.855469 -7.4375 C 6.886719 -7.3125 6.855469 -7.160156 6.855469 -6.992188 C 6.855469 -6.839844 6.886719 -6.6875 6.855469 -6.550781 Z M 6.855469 -6.550781 "/></g></g></g><g fill="#d9d9d9" fill-opacity="1"><g transform="translate(173.871531, 209.738775)"><g><path d="M 7.878906 -0.59375 C 7.847656 -0.671875 7.804688 -0.808594 7.710938 -0.976562 C 7.664062 -1.085938 7.605469 -1.207031 7.527344 -1.34375 C 7.480469 -1.449219 7.4375 -1.589844 7.375 -1.710938 C 7.3125 -1.832031 7.207031 -1.9375 7.144531 -2.0625 C 7.085938 -2.183594 7.039062 -2.320312 6.964844 -2.441406 C 6.902344 -2.566406 6.808594 -2.671875 6.75 -2.792969 C 6.6875 -2.917969 6.628906 -3.039062 6.566406 -3.160156 C 6.503906 -3.28125 6.429688 -3.40625 6.382812 -3.511719 C 6.304688 -3.648438 6.246094 -3.773438 6.183594 -3.878906 C 6.109375 -4.046875 6.046875 -4.167969 6 -4.246094 C 5.984375 -4.304688 6 -4.414062 6.046875 -4.457031 C 6.09375 -4.488281 6.246094 -4.519531 6.429688 -4.625 C 6.519531 -4.671875 6.628906 -4.78125 6.75 -4.855469 C 6.855469 -4.933594 6.964844 -5.007812 7.070312 -5.117188 C 7.160156 -5.191406 7.300781 -5.253906 7.390625 -5.359375 C 7.46875 -5.464844 7.527344 -5.589844 7.605469 -5.710938 C 7.664062 -5.816406 7.742188 -5.941406 7.789062 -6.078125 C 7.832031 -6.199219 7.832031 -6.320312 7.863281 -6.472656 C 7.878906 -6.597656 7.894531 -6.734375 7.894531 -6.871094 C 7.894531 -7.007812 7.894531 -7.144531 7.878906 -7.285156 C 7.863281 -7.421875 7.863281 -7.558594 7.832031 -7.679688 C 7.789062 -7.816406 7.710938 -7.941406 7.648438 -8.0625 C 7.605469 -8.183594 7.527344 -8.292969 7.46875 -8.414062 C 7.390625 -8.519531 7.3125 -8.644531 7.222656 -8.734375 C 7.132812 -8.839844 7.039062 -8.933594 6.933594 -9.007812 C 6.824219 -9.101562 6.71875 -9.175781 6.597656 -9.238281 C 6.472656 -9.316406 6.367188 -9.375 6.246094 -9.4375 C 6.109375 -9.484375 5.984375 -9.511719 5.863281 -9.542969 C 5.757812 -9.558594 5.621094 -9.605469 5.4375 -9.621094 C 5.296875 -9.636719 5.160156 -9.605469 4.992188 -9.605469 C 4.855469 -9.621094 4.71875 -9.652344 4.566406 -9.652344 C 4.429688 -9.652344 4.277344 -9.652344 4.121094 -9.652344 C 3.984375 -9.652344 3.832031 -9.664062 3.695312 -9.664062 C 3.542969 -9.664062 3.40625 -9.664062 3.253906 -9.664062 C 3.101562 -9.664062 2.960938 -9.664062 2.824219 -9.664062 C 2.65625 -9.664062 2.519531 -9.679688 2.382812 -9.679688 C 2.214844 -9.664062 2.0625 -9.652344 1.953125 -9.652344 C 1.800781 -9.652344 1.695312 -9.664062 1.589844 -9.664062 C 1.433594 -9.652344 1.34375 -9.605469 1.296875 -9.496094 C 1.253906 -9.421875 1.253906 -9.316406 1.238281 -9.148438 C 1.238281 -9.023438 1.238281 -8.886719 1.238281 -8.734375 C 1.238281 -8.613281 1.238281 -8.476562 1.238281 -8.320312 C 1.238281 -8.183594 1.238281 -8.046875 1.238281 -7.910156 C 1.238281 -7.773438 1.238281 -7.636719 1.238281 -7.480469 C 1.238281 -7.359375 1.238281 -7.222656 1.238281 -7.070312 C 1.238281 -6.933594 1.222656 -6.796875 1.222656 -6.65625 C 1.222656 -6.519531 1.191406 -6.382812 1.191406 -6.246094 C 1.191406 -6.109375 1.207031 -5.96875 1.207031 -5.832031 C 1.207031 -5.695312 1.207031 -5.558594 1.207031 -5.421875 C 1.207031 -5.285156 1.207031 -5.144531 1.207031 -4.992188 C 1.207031 -4.855469 1.207031 -4.71875 1.207031 -4.582031 C 1.207031 -4.445312 1.207031 -4.304688 1.207031 -4.167969 C 1.207031 -4.03125 1.191406 -3.894531 1.191406 -3.773438 C 1.191406 -3.617188 1.175781 -3.480469 1.191406 -3.34375 C 1.191406 -3.207031 1.191406 -3.070312 1.191406 -2.933594 C 1.191406 -2.792969 1.191406 -2.65625 1.191406 -2.519531 C 1.191406 -2.382812 1.207031 -2.246094 1.207031 -2.105469 C 1.207031 -1.96875 1.191406 -1.832031 1.207031 -1.695312 C 1.207031 -1.542969 1.222656 -1.40625 1.222656 -1.28125 C 1.222656 -1.128906 1.207031 -0.992188 1.207031 -0.871094 C 1.207031 -0.761719 1.207031 -0.625 1.207031 -0.488281 C 1.207031 -0.351562 1.175781 -0.199219 1.222656 -0.105469 C 1.28125 0.015625 1.617188 0 1.726562 -0.03125 C 1.878906 -0.0625 2.09375 0 2.136719 -0.152344 C 2.183594 -0.246094 2.199219 -0.398438 2.199219 -0.550781 C 2.199219 -0.71875 2.214844 -0.871094 2.214844 -0.976562 C 2.214844 -1.054688 2.199219 -1.191406 2.199219 -1.375 C 2.199219 -1.496094 2.214844 -1.632812 2.214844 -1.769531 C 2.214844 -1.894531 2.214844 -2.03125 2.214844 -2.167969 C 2.214844 -2.304688 2.199219 -2.441406 2.199219 -2.582031 C 2.199219 -2.703125 2.199219 -2.839844 2.199219 -2.976562 C 2.199219 -3.113281 2.167969 -3.238281 2.167969 -3.375 C 2.167969 -3.511719 2.214844 -3.648438 2.214844 -3.773438 C 2.214844 -3.953125 2.183594 -4.109375 2.183594 -4.183594 C 2.304688 -4.199219 2.457031 -4.199219 2.609375 -4.214844 C 2.75 -4.230469 2.902344 -4.230469 3.039062 -4.230469 C 3.191406 -4.246094 3.328125 -4.277344 3.464844 -4.277344 C 3.617188 -4.289062 3.757812 -4.261719 3.894531 -4.261719 C 4.046875 -4.261719 4.199219 -4.277344 4.320312 -4.261719 C 4.488281 -4.246094 4.625 -4.167969 4.734375 -4.136719 C 4.871094 -4.109375 5.007812 -4.046875 5.101562 -3.925781 C 5.175781 -3.816406 5.207031 -3.664062 5.269531 -3.527344 C 5.296875 -3.464844 5.359375 -3.328125 5.453125 -3.144531 C 5.511719 -3.023438 5.589844 -2.902344 5.664062 -2.765625 C 5.726562 -2.640625 5.773438 -2.503906 5.847656 -2.367188 C 5.910156 -2.246094 5.957031 -2.105469 6.03125 -1.96875 C 6.09375 -1.847656 6.183594 -1.726562 6.246094 -1.601562 C 6.304688 -1.464844 6.351562 -1.328125 6.414062 -1.207031 C 6.488281 -1.054688 6.550781 -0.929688 6.597656 -0.808594 C 6.6875 -0.625 6.796875 -0.503906 6.824219 -0.441406 C 6.902344 -0.304688 6.964844 -0.214844 7.023438 -0.152344 C 7.117188 -0.046875 7.191406 0.015625 7.3125 0.015625 C 7.421875 0.015625 7.542969 -0.03125 7.679688 -0.03125 C 7.957031 -0.03125 8.03125 -0.015625 8.015625 -0.167969 C 8.015625 -0.257812 7.972656 -0.382812 7.878906 -0.59375 Z M 5.816406 -5.4375 C 5.679688 -5.375 5.558594 -5.359375 5.453125 -5.3125 C 5.296875 -5.269531 5.175781 -5.222656 5.070312 -5.222656 C 4.992188 -5.207031 4.855469 -5.207031 4.671875 -5.207031 C 4.550781 -5.207031 4.398438 -5.222656 4.261719 -5.222656 C 4.121094 -5.222656 3.984375 -5.207031 3.847656 -5.207031 C 3.710938 -5.207031 3.574219 -5.207031 3.4375 -5.207031 C 3.296875 -5.207031 3.144531 -5.175781 3.023438 -5.175781 C 2.871094 -5.175781 2.734375 -5.222656 2.609375 -5.222656 C 2.441406 -5.222656 2.273438 -5.191406 2.199219 -5.191406 C 2.199219 -5.285156 2.183594 -5.453125 2.183594 -5.632812 C 2.183594 -5.773438 2.183594 -5.910156 2.183594 -6.078125 C 2.183594 -6.214844 2.183594 -6.367188 2.183594 -6.503906 C 2.183594 -6.65625 2.183594 -6.796875 2.183594 -6.949219 C 2.183594 -7.101562 2.183594 -7.238281 2.183594 -7.390625 C 2.183594 -7.527344 2.183594 -7.679688 2.183594 -7.816406 C 2.183594 -7.972656 2.199219 -8.125 2.199219 -8.246094 C 2.199219 -8.445312 2.230469 -8.566406 2.230469 -8.65625 C 2.304688 -8.671875 2.441406 -8.6875 2.640625 -8.6875 C 2.777344 -8.6875 2.933594 -8.6875 3.085938 -8.6875 C 3.222656 -8.6875 3.375 -8.6875 3.527344 -8.6875 C 3.679688 -8.6875 3.832031 -8.6875 3.96875 -8.6875 C 4.121094 -8.6875 4.277344 -8.703125 4.414062 -8.703125 C 4.566406 -8.703125 4.71875 -8.671875 4.855469 -8.671875 C 5.054688 -8.671875 5.207031 -8.65625 5.285156 -8.65625 C 5.40625 -8.65625 5.542969 -8.628906 5.695312 -8.566406 C 5.816406 -8.503906 5.941406 -8.429688 6.078125 -8.351562 C 6.183594 -8.261719 6.304688 -8.183594 6.414062 -8.078125 C 6.503906 -7.972656 6.597656 -7.863281 6.671875 -7.742188 C 6.75 -7.621094 6.808594 -7.496094 6.855469 -7.34375 C 6.902344 -7.207031 6.902344 -7.070312 6.902344 -6.917969 C 6.902344 -6.78125 6.902344 -6.65625 6.871094 -6.535156 C 6.824219 -6.414062 6.75 -6.304688 6.671875 -6.199219 C 6.613281 -6.09375 6.550781 -5.957031 6.460938 -5.878906 C 6.367188 -5.789062 6.261719 -5.695312 6.152344 -5.632812 C 6.046875 -5.558594 5.925781 -5.496094 5.816406 -5.4375 Z M 5.816406 -5.4375 "/></g></g></g><g fill="#d9d9d9" fill-opacity="1"><g transform="translate(182.666739, 209.738775)"><g><path d="M 8.03125 -5.742188 C 8.015625 -5.941406 8 -6.136719 7.941406 -6.382812 C 7.863281 -6.582031 7.789062 -6.824219 7.710938 -7.085938 C 7.636719 -7.3125 7.542969 -7.542969 7.4375 -7.773438 C 7.34375 -8 7.238281 -8.230469 7.101562 -8.445312 C 6.976562 -8.644531 6.808594 -8.839844 6.628906 -9.007812 C 6.445312 -9.160156 6.261719 -9.328125 6.015625 -9.453125 C 5.816406 -9.542969 5.574219 -9.589844 5.296875 -9.652344 C 5.070312 -9.679688 4.824219 -9.726562 4.566406 -9.726562 C 4.289062 -9.726562 4.03125 -9.695312 3.785156 -9.652344 C 3.527344 -9.605469 3.28125 -9.527344 3.054688 -9.421875 C 2.824219 -9.316406 2.609375 -9.175781 2.398438 -9.007812 C 2.214844 -8.855469 2.015625 -8.671875 1.863281 -8.460938 C 1.710938 -8.261719 1.574219 -8.046875 1.449219 -7.804688 C 1.34375 -7.574219 1.265625 -7.328125 1.207031 -7.070312 C 1.128906 -6.824219 1.054688 -6.582031 1.007812 -6.335938 C 0.945312 -6.078125 0.917969 -5.832031 0.886719 -5.574219 C 0.855469 -5.328125 0.839844 -5.085938 0.839844 -4.824219 C 0.824219 -4.535156 0.839844 -4.246094 0.886719 -3.941406 C 0.917969 -3.648438 0.960938 -3.359375 1.039062 -3.054688 C 1.097656 -2.839844 1.160156 -2.625 1.238281 -2.414062 C 1.3125 -2.199219 1.421875 -1.984375 1.511719 -1.785156 C 1.617188 -1.574219 1.742188 -1.390625 1.878906 -1.207031 C 2.03125 -0.992188 2.183594 -0.808594 2.382812 -0.640625 C 2.566406 -0.472656 2.765625 -0.304688 2.976562 -0.183594 C 3.207031 -0.0625 3.464844 0 3.695312 0.0625 C 3.953125 0.121094 4.199219 0.152344 4.457031 0.152344 C 4.703125 0.152344 4.960938 0.121094 5.222656 0.0625 C 5.464844 0 5.710938 -0.0898438 5.941406 -0.214844 C 6.152344 -0.335938 6.351562 -0.488281 6.550781 -0.671875 C 6.734375 -0.839844 6.933594 -1.023438 7.070312 -1.238281 C 7.222656 -1.464844 7.375 -1.695312 7.496094 -1.9375 C 7.621094 -2.183594 7.710938 -2.441406 7.789062 -2.6875 C 7.878906 -2.945312 7.941406 -3.207031 8 -3.480469 C 8.046875 -3.742188 8.0625 -4.015625 8.09375 -4.289062 C 8.109375 -4.550781 8.109375 -4.824219 8.109375 -5.101562 C 8.078125 -5.34375 8.046875 -5.542969 8.03125 -5.742188 Z M 1.9375 -5.390625 C 1.96875 -5.632812 1.984375 -5.863281 2.03125 -6.09375 C 2.0625 -6.320312 2.121094 -6.535156 2.183594 -6.796875 C 2.246094 -7.054688 2.335938 -7.328125 2.472656 -7.574219 C 2.609375 -7.816406 2.792969 -8.03125 2.976562 -8.230469 C 3.175781 -8.429688 3.40625 -8.597656 3.648438 -8.71875 C 3.910156 -8.839844 4.167969 -8.917969 4.457031 -8.917969 C 4.734375 -8.917969 4.992188 -8.855469 5.222656 -8.75 C 5.464844 -8.644531 5.695312 -8.503906 5.878906 -8.308594 C 6.0625 -8.125 6.214844 -7.910156 6.351562 -7.664062 C 6.472656 -7.4375 6.582031 -7.191406 6.671875 -6.933594 C 6.75 -6.6875 6.808594 -6.460938 6.871094 -6.230469 C 6.917969 -5.984375 6.964844 -5.742188 6.992188 -5.511719 C 7.023438 -5.269531 7.054688 -5.023438 7.054688 -4.792969 C 7.054688 -4.519531 7.054688 -4.246094 7.023438 -3.96875 C 6.992188 -3.695312 6.917969 -3.4375 6.855469 -3.160156 C 6.78125 -2.902344 6.671875 -2.65625 6.566406 -2.398438 C 6.472656 -2.136719 6.382812 -1.910156 6.261719 -1.726562 C 6.109375 -1.496094 5.957031 -1.3125 5.757812 -1.175781 C 5.558594 -1.023438 5.34375 -0.902344 5.101562 -0.839844 C 4.871094 -0.777344 4.625 -0.75 4.367188 -0.75 C 4.09375 -0.761719 3.832031 -0.808594 3.617188 -0.902344 C 3.375 -1.007812 3.175781 -1.175781 3.007812 -1.34375 C 2.824219 -1.527344 2.6875 -1.726562 2.566406 -1.96875 C 2.457031 -2.183594 2.351562 -2.414062 2.273438 -2.671875 C 2.199219 -2.886719 2.152344 -3.113281 2.105469 -3.328125 C 2.0625 -3.558594 2.015625 -3.785156 1.96875 -4 C 1.9375 -4.230469 1.910156 -4.457031 1.863281 -4.671875 C 1.894531 -4.933594 1.910156 -5.175781 1.9375 -5.390625 Z M 1.9375 -5.390625 "/></g></g></g><g fill="#d9d9d9" fill-opacity="1"><g transform="translate(191.614644, 209.738775)"><g><path d="M 6.917969 -3.742188 C 6.917969 -3.878906 6.949219 -4.015625 6.949219 -4.167969 C 6.949219 -4.304688 6.917969 -4.445312 6.917969 -4.597656 C 6.917969 -4.734375 6.902344 -4.886719 6.902344 -5.023438 C 6.902344 -5.175781 6.917969 -5.3125 6.917969 -5.464844 C 6.917969 -5.605469 6.902344 -5.742188 6.902344 -5.894531 C 6.902344 -6.03125 6.902344 -6.167969 6.902344 -6.320312 C 6.902344 -6.460938 6.933594 -6.597656 6.933594 -6.75 C 6.933594 -6.886719 6.933594 -7.039062 6.933594 -7.175781 C 6.933594 -7.3125 6.917969 -7.46875 6.917969 -7.605469 C 6.933594 -7.742188 6.949219 -7.894531 6.949219 -8.03125 C 6.949219 -8.183594 6.933594 -8.320312 6.933594 -8.445312 C 6.933594 -8.613281 6.933594 -8.765625 6.933594 -8.871094 C 6.933594 -9.070312 6.917969 -9.238281 6.886719 -9.359375 C 6.839844 -9.558594 6.734375 -9.636719 6.535156 -9.636719 C 6.382812 -9.636719 6.261719 -9.636719 6.125 -9.589844 C 6 -9.542969 5.910156 -9.484375 5.800781 -9.359375 C 5.800781 -9.253906 5.773438 -9.132812 5.773438 -8.964844 C 5.773438 -8.839844 5.816406 -8.703125 5.832031 -8.566406 C 5.832031 -8.429688 5.800781 -8.292969 5.800781 -8.152344 C 5.800781 -8.03125 5.832031 -7.894531 5.832031 -7.742188 C 5.847656 -7.621094 5.816406 -7.480469 5.816406 -7.34375 C 5.816406 -7.207031 5.863281 -7.070312 5.863281 -6.933594 C 5.863281 -6.808594 5.863281 -6.671875 5.863281 -6.535156 C 5.863281 -6.398438 5.878906 -6.261719 5.878906 -6.125 C 5.878906 -6 5.847656 -5.863281 5.847656 -5.726562 C 5.863281 -5.589844 5.847656 -5.453125 5.847656 -5.3125 C 5.847656 -5.191406 5.894531 -5.054688 5.910156 -4.917969 C 5.910156 -4.78125 5.910156 -4.640625 5.910156 -4.519531 C 5.910156 -4.382812 5.910156 -4.246094 5.910156 -4.121094 C 5.910156 -3.96875 5.910156 -3.847656 5.910156 -3.710938 C 5.910156 -3.574219 5.925781 -3.4375 5.925781 -3.3125 C 5.925781 -3.144531 5.925781 -3.007812 5.925781 -2.917969 C 5.941406 -2.792969 5.910156 -2.671875 5.878906 -2.519531 C 5.847656 -2.398438 5.816406 -2.273438 5.757812 -2.136719 C 5.710938 -2.03125 5.621094 -1.925781 5.542969 -1.816406 C 5.480469 -1.710938 5.421875 -1.574219 5.328125 -1.480469 C 5.253906 -1.375 5.144531 -1.296875 5.039062 -1.222656 C 4.933594 -1.128906 4.839844 -1.039062 4.71875 -0.976562 C 4.613281 -0.917969 4.488281 -0.855469 4.367188 -0.808594 C 4.246094 -0.777344 4.109375 -0.734375 3.96875 -0.71875 C 3.847656 -0.703125 3.710938 -0.71875 3.574219 -0.71875 C 3.421875 -0.71875 3.28125 -0.734375 3.144531 -0.761719 C 3.007812 -0.792969 2.871094 -0.855469 2.75 -0.917969 C 2.609375 -0.976562 2.472656 -1.039062 2.367188 -1.128906 C 2.246094 -1.222656 2.167969 -1.34375 2.078125 -1.449219 C 1.96875 -1.558594 1.894531 -1.695312 1.832031 -1.800781 C 1.757812 -1.9375 1.710938 -2.078125 1.664062 -2.199219 C 1.589844 -2.382812 1.511719 -2.519531 1.511719 -2.609375 C 1.511719 -2.71875 1.527344 -2.839844 1.511719 -2.976562 C 1.511719 -3.101562 1.527344 -3.222656 1.511719 -3.34375 C 1.511719 -3.496094 1.511719 -3.632812 1.496094 -3.726562 C 1.390625 -3.785156 1.28125 -3.832031 1.191406 -3.894531 C 0.960938 -3.894531 0.824219 -3.847656 0.71875 -3.800781 C 0.59375 -3.742188 0.519531 -3.632812 0.519531 -3.40625 C 0.503906 -3.28125 0.535156 -3.160156 0.535156 -3.007812 C 0.535156 -2.902344 0.550781 -2.777344 0.566406 -2.609375 C 0.566406 -2.535156 0.550781 -2.382812 0.59375 -2.199219 C 0.625 -2.09375 0.6875 -1.953125 0.75 -1.816406 C 0.792969 -1.695312 0.855469 -1.574219 0.917969 -1.449219 C 0.976562 -1.328125 1.054688 -1.222656 1.128906 -1.097656 C 1.207031 -0.992188 1.265625 -0.855469 1.359375 -0.761719 C 1.449219 -0.65625 1.542969 -0.550781 1.648438 -0.457031 C 1.757812 -0.382812 1.878906 -0.320312 2 -0.257812 C 2.121094 -0.183594 2.230469 -0.105469 2.367188 -0.0625 C 2.488281 0 2.609375 0.0625 2.75 0.0898438 C 2.886719 0.121094 3.023438 0.105469 3.160156 0.121094 C 3.296875 0.136719 3.4375 0.136719 3.574219 0.136719 C 3.726562 0.136719 3.863281 0.167969 4 0.152344 C 4.136719 0.136719 4.277344 0.121094 4.414062 0.105469 C 4.550781 0.078125 4.6875 0.015625 4.808594 -0.03125 C 4.949219 -0.078125 5.070312 -0.152344 5.191406 -0.214844 C 5.3125 -0.273438 5.453125 -0.320312 5.558594 -0.398438 C 5.679688 -0.488281 5.789062 -0.582031 5.878906 -0.671875 C 5.984375 -0.777344 6.0625 -0.886719 6.136719 -0.992188 C 6.230469 -1.097656 6.304688 -1.222656 6.367188 -1.34375 C 6.445312 -1.464844 6.519531 -1.574219 6.582031 -1.695312 C 6.640625 -1.832031 6.6875 -1.953125 6.734375 -2.09375 C 6.78125 -2.214844 6.839844 -2.351562 6.871094 -2.488281 C 6.902344 -2.625 6.902344 -2.765625 6.917969 -2.902344 C 6.933594 -3.039062 6.949219 -3.175781 6.949219 -3.3125 C 6.949219 -3.421875 6.933594 -3.574219 6.917969 -3.742188 Z M 6.917969 -3.742188 "/></g></g></g><g fill="#d9d9d9" fill-opacity="1"><g transform="translate(199.661649, 209.738775)"><g><path d="M 6.75 -1.023438 C 6.597656 -1.039062 6.445312 -1.007812 6.304688 -1.007812 C 6.152344 -1.007812 6 -1.054688 5.847656 -1.039062 C 5.695312 -1.039062 5.542969 -1.023438 5.390625 -1.039062 C 5.328125 -1.039062 5.160156 -1.007812 4.960938 -1.007812 C 4.839844 -0.992188 4.6875 -0.992188 4.535156 -0.992188 C 4.398438 -0.992188 4.246094 -1.023438 4.09375 -1.023438 C 3.953125 -1.007812 3.800781 -1.007812 3.664062 -1.007812 C 3.511719 -0.992188 3.375 -0.992188 3.238281 -0.992188 C 3.070312 -0.992188 2.933594 -0.960938 2.792969 -0.960938 C 2.625 -0.960938 2.472656 -0.976562 2.367188 -0.976562 C 2.246094 -0.960938 2.167969 -1.070312 2.152344 -1.191406 C 2.152344 -1.28125 2.121094 -1.40625 2.121094 -1.527344 C 2.105469 -1.632812 2.09375 -1.757812 2.105469 -1.863281 C 2.105469 -1.894531 2.105469 -2.046875 2.105469 -2.261719 C 2.105469 -2.382812 2.09375 -2.519531 2.09375 -2.671875 C 2.09375 -2.792969 2.152344 -2.933594 2.152344 -3.070312 C 2.152344 -3.207031 2.105469 -3.34375 2.105469 -3.480469 C 2.121094 -3.617188 2.152344 -3.757812 2.152344 -3.878906 C 2.167969 -4.09375 2.152344 -4.230469 2.167969 -4.277344 C 2.261719 -4.277344 2.414062 -4.277344 2.597656 -4.261719 C 2.734375 -4.261719 2.871094 -4.289062 3.039062 -4.289062 C 3.175781 -4.289062 3.3125 -4.277344 3.464844 -4.277344 C 3.605469 -4.277344 3.757812 -4.261719 3.910156 -4.261719 C 4.046875 -4.261719 4.199219 -4.277344 4.335938 -4.277344 C 4.488281 -4.277344 4.625 -4.261719 4.765625 -4.261719 C 4.917969 -4.261719 5.070312 -4.261719 5.191406 -4.261719 C 5.390625 -4.261719 5.542969 -4.289062 5.632812 -4.289062 C 5.847656 -4.289062 6 -4.289062 6.09375 -4.320312 C 6.230469 -4.382812 6.246094 -4.503906 6.230469 -4.71875 C 6.214844 -4.839844 6.214844 -5.007812 6.183594 -5.191406 C 6.046875 -5.207031 5.878906 -5.222656 5.742188 -5.222656 C 5.589844 -5.238281 5.4375 -5.191406 5.296875 -5.207031 C 5.144531 -5.207031 4.992188 -5.253906 4.855469 -5.269531 C 4.792969 -5.285156 4.640625 -5.285156 4.429688 -5.285156 C 4.304688 -5.285156 4.167969 -5.253906 4.015625 -5.253906 C 3.878906 -5.253906 3.742188 -5.285156 3.589844 -5.285156 C 3.449219 -5.285156 3.3125 -5.296875 3.175781 -5.296875 C 3.023438 -5.296875 2.886719 -5.253906 2.75 -5.253906 C 2.582031 -5.253906 2.429688 -5.296875 2.335938 -5.296875 C 2.246094 -5.296875 2.152344 -5.34375 2.152344 -5.4375 C 2.152344 -5.527344 2.152344 -5.664062 2.152344 -5.816406 C 2.152344 -5.941406 2.136719 -6.078125 2.136719 -6.214844 C 2.136719 -6.351562 2.152344 -6.488281 2.152344 -6.613281 C 2.152344 -6.78125 2.136719 -6.933594 2.136719 -6.992188 C 2.136719 -7.054688 2.167969 -7.207031 2.183594 -7.390625 C 2.183594 -7.511719 2.183594 -7.648438 2.199219 -7.804688 C 2.199219 -7.941406 2.183594 -8.078125 2.183594 -8.199219 C 2.199219 -8.367188 2.230469 -8.503906 2.246094 -8.582031 C 2.335938 -8.582031 2.472656 -8.597656 2.640625 -8.597656 C 2.765625 -8.597656 2.902344 -8.628906 3.054688 -8.628906 C 3.191406 -8.628906 3.328125 -8.582031 3.464844 -8.582031 C 3.605469 -8.582031 3.742188 -8.597656 3.878906 -8.597656 C 4.015625 -8.597656 4.152344 -8.597656 4.289062 -8.597656 C 4.429688 -8.597656 4.566406 -8.597656 4.703125 -8.597656 C 4.839844 -8.597656 4.976562 -8.613281 5.117188 -8.613281 C 5.253906 -8.613281 5.390625 -8.613281 5.527344 -8.613281 C 5.664062 -8.613281 5.800781 -8.628906 5.941406 -8.628906 C 6.078125 -8.628906 6.214844 -8.582031 6.335938 -8.582031 C 6.519531 -8.582031 6.65625 -8.597656 6.75 -8.597656 C 6.933594 -8.597656 7.070312 -8.582031 7.160156 -8.644531 C 7.253906 -8.703125 7.300781 -8.824219 7.3125 -9.023438 C 7.3125 -9.160156 7.300781 -9.269531 7.285156 -9.375 C 7.269531 -9.484375 7.238281 -9.542969 7.085938 -9.589844 C 6.992188 -9.605469 6.886719 -9.636719 6.734375 -9.636719 C 6.613281 -9.636719 6.472656 -9.621094 6.335938 -9.621094 C 6.214844 -9.621094 6.078125 -9.636719 5.941406 -9.621094 C 5.800781 -9.621094 5.679688 -9.605469 5.542969 -9.605469 C 5.453125 -9.605469 5.296875 -9.605469 5.117188 -9.605469 C 4.992188 -9.605469 4.839844 -9.636719 4.6875 -9.636719 C 4.550781 -9.636719 4.414062 -9.605469 4.261719 -9.605469 C 4.121094 -9.605469 3.96875 -9.605469 3.816406 -9.605469 C 3.679688 -9.621094 3.542969 -9.652344 3.390625 -9.652344 C 3.253906 -9.652344 3.101562 -9.636719 2.960938 -9.636719 C 2.824219 -9.652344 2.671875 -9.621094 2.535156 -9.636719 C 2.382812 -9.636719 2.246094 -9.664062 2.105469 -9.664062 C 1.953125 -9.664062 1.800781 -9.636719 1.679688 -9.636719 C 1.496094 -9.636719 1.375 -9.636719 1.265625 -9.636719 C 1.265625 -9.511719 1.253906 -9.390625 1.238281 -9.222656 C 1.238281 -9.101562 1.238281 -8.964844 1.238281 -8.8125 C 1.238281 -8.671875 1.253906 -8.535156 1.253906 -8.398438 C 1.253906 -8.261719 1.207031 -8.125 1.207031 -7.972656 C 1.207031 -7.832031 1.253906 -7.695312 1.253906 -7.558594 C 1.253906 -7.421875 1.222656 -7.285156 1.222656 -7.132812 C 1.222656 -6.992188 1.191406 -6.855469 1.191406 -6.71875 C 1.191406 -6.582031 1.222656 -6.445312 1.222656 -6.292969 C 1.222656 -6.152344 1.207031 -6.015625 1.207031 -5.878906 C 1.207031 -5.742188 1.207031 -5.589844 1.207031 -5.453125 C 1.207031 -5.3125 1.222656 -5.175781 1.222656 -5.039062 C 1.222656 -4.902344 1.222656 -4.75 1.222656 -4.613281 C 1.222656 -4.472656 1.175781 -4.335938 1.175781 -4.199219 C 1.175781 -4.0625 1.222656 -3.925781 1.222656 -3.785156 C 1.222656 -3.632812 1.191406 -3.496094 1.191406 -3.359375 C 1.191406 -3.222656 1.222656 -3.085938 1.222656 -2.945312 C 1.222656 -2.808594 1.175781 -2.65625 1.175781 -2.535156 C 1.160156 -2.382812 1.207031 -2.246094 1.207031 -2.105469 C 1.207031 -1.96875 1.175781 -1.832031 1.175781 -1.695312 C 1.175781 -1.542969 1.191406 -1.40625 1.191406 -1.265625 C 1.191406 -1.128906 1.175781 -0.976562 1.175781 -0.855469 C 1.175781 -0.703125 1.191406 -0.566406 1.191406 -0.441406 C 1.191406 -0.304688 1.433594 -0.03125 1.589844 -0.015625 C 1.695312 -0.015625 1.832031 -0.0625 1.984375 -0.0625 C 2.105469 -0.046875 2.246094 -0.015625 2.398438 -0.015625 C 2.535156 -0.015625 2.671875 -0.03125 2.808594 -0.03125 C 2.945312 -0.03125 3.085938 0 3.222656 0 C 3.359375 0 3.496094 -0.015625 3.632812 -0.015625 C 3.773438 -0.015625 3.910156 -0.03125 4.046875 -0.03125 C 4.183594 -0.03125 4.320312 -0.03125 4.457031 -0.03125 C 4.597656 -0.03125 4.734375 -0.03125 4.871094 -0.03125 C 5.007812 -0.03125 5.144531 0 5.269531 0 C 5.421875 0 5.558594 -0.046875 5.679688 -0.0625 C 5.832031 -0.0625 5.957031 -0.0625 6.09375 -0.0625 C 6.230469 -0.0625 6.367188 -0.015625 6.503906 -0.015625 C 6.65625 -0.015625 6.796875 -0.0625 6.902344 -0.0625 C 7.101562 -0.078125 7.191406 -0.167969 7.222656 -0.304688 C 7.238281 -0.425781 7.207031 -0.59375 7.117188 -0.734375 C 7.023438 -0.871094 6.933594 -1.007812 6.75 -1.023438 Z M 6.75 -1.023438 "/></g></g></g><g fill="#d9d9d9" fill-opacity="1"><g transform="translate(207.555954, 209.738775)"><g><path d="M 7.878906 -1.679688 C 7.847656 -1.769531 7.757812 -1.863281 7.648438 -1.96875 C 7.496094 -2.121094 7.421875 -2.214844 7.3125 -2.183594 C 7.238281 -2.167969 7.132812 -2.078125 6.992188 -1.9375 C 6.917969 -1.863281 6.855469 -1.726562 6.75 -1.617188 C 6.65625 -1.527344 6.519531 -1.464844 6.367188 -1.375 C 6.246094 -1.3125 6.109375 -1.253906 5.957031 -1.207031 C 5.816406 -1.160156 5.679688 -1.085938 5.527344 -1.054688 C 5.390625 -1.023438 5.238281 -1.023438 5.070312 -1.007812 C 4.933594 -1.007812 4.78125 -1.007812 4.625 -1.007812 C 4.488281 -1.007812 4.351562 -0.976562 4.214844 -1.007812 C 4.09375 -1.023438 3.96875 -1.113281 3.847656 -1.160156 C 3.726562 -1.207031 3.574219 -1.222656 3.464844 -1.28125 C 3.34375 -1.359375 3.238281 -1.433594 3.128906 -1.527344 C 3.023438 -1.617188 2.917969 -1.695312 2.824219 -1.800781 C 2.734375 -1.894531 2.671875 -2.015625 2.597656 -2.136719 C 2.519531 -2.246094 2.429688 -2.351562 2.367188 -2.472656 C 2.304688 -2.582031 2.273438 -2.71875 2.230469 -2.855469 C 2.183594 -2.976562 2.136719 -3.101562 2.09375 -3.238281 C 2.0625 -3.359375 2 -3.480469 1.96875 -3.617188 C 1.9375 -3.757812 1.953125 -3.894531 1.9375 -4.03125 C 1.925781 -4.152344 1.878906 -4.289062 1.878906 -4.429688 C 1.863281 -4.566406 1.847656 -4.703125 1.847656 -4.839844 C 1.847656 -4.976562 1.847656 -5.128906 1.863281 -5.269531 C 1.878906 -5.421875 1.894531 -5.558594 1.925781 -5.695312 C 1.9375 -5.847656 2.015625 -5.96875 2.046875 -6.109375 C 2.078125 -6.246094 2.136719 -6.382812 2.183594 -6.519531 C 2.246094 -6.65625 2.273438 -6.796875 2.335938 -6.917969 C 2.398438 -7.054688 2.441406 -7.191406 2.503906 -7.3125 C 2.582031 -7.4375 2.6875 -7.542969 2.765625 -7.648438 C 2.855469 -7.773438 2.933594 -7.894531 3.023438 -8 C 3.128906 -8.109375 3.269531 -8.167969 3.375 -8.261719 C 3.480469 -8.351562 3.605469 -8.429688 3.726562 -8.488281 C 3.847656 -8.566406 3.96875 -8.65625 4.109375 -8.6875 C 4.246094 -8.734375 4.382812 -8.734375 4.535156 -8.734375 C 4.671875 -8.734375 4.808594 -8.75 4.933594 -8.734375 C 5.070312 -8.71875 5.191406 -8.644531 5.3125 -8.613281 C 5.453125 -8.582031 5.574219 -8.519531 5.679688 -8.476562 C 5.816406 -8.414062 5.925781 -8.367188 6.03125 -8.292969 C 6.152344 -8.214844 6.277344 -8.152344 6.367188 -8.078125 C 6.472656 -7.984375 6.566406 -7.878906 6.640625 -7.789062 C 6.75 -7.664062 6.824219 -7.542969 6.886719 -7.46875 C 6.992188 -7.300781 7.101562 -7.191406 7.238281 -7.175781 C 7.34375 -7.175781 7.480469 -7.253906 7.636719 -7.390625 C 7.804688 -7.511719 7.910156 -7.574219 7.863281 -7.816406 C 7.832031 -7.972656 7.789062 -8.230469 7.679688 -8.351562 C 7.621094 -8.414062 7.496094 -8.488281 7.390625 -8.613281 C 7.3125 -8.703125 7.222656 -8.796875 7.117188 -8.902344 C 7.023438 -8.980469 6.933594 -9.085938 6.808594 -9.160156 C 6.703125 -9.222656 6.582031 -9.269531 6.445312 -9.328125 C 6.335938 -9.375 6.230469 -9.484375 6.109375 -9.527344 C 5.984375 -9.574219 5.847656 -9.605469 5.710938 -9.636719 C 5.589844 -9.664062 5.453125 -9.652344 5.3125 -9.679688 C 5.191406 -9.695312 5.054688 -9.726562 4.917969 -9.742188 C 4.792969 -9.757812 4.65625 -9.726562 4.519531 -9.726562 C 4.382812 -9.726562 4.261719 -9.726562 4.121094 -9.710938 C 3.984375 -9.695312 3.847656 -9.695312 3.726562 -9.664062 C 3.589844 -9.636719 3.464844 -9.558594 3.34375 -9.511719 C 3.222656 -9.46875 3.101562 -9.40625 2.992188 -9.34375 C 2.871094 -9.269531 2.75 -9.222656 2.640625 -9.132812 C 2.535156 -9.054688 2.457031 -8.933594 2.367188 -8.839844 C 2.261719 -8.75 2.183594 -8.65625 2.09375 -8.550781 C 2 -8.460938 1.910156 -8.351562 1.832031 -8.246094 C 1.757812 -8.140625 1.679688 -8.03125 1.617188 -7.910156 C 1.542969 -7.804688 1.449219 -7.695312 1.40625 -7.574219 C 1.34375 -7.453125 1.3125 -7.328125 1.253906 -7.191406 C 1.207031 -7.070312 1.128906 -6.964844 1.097656 -6.824219 C 1.054688 -6.703125 1.023438 -6.566406 0.992188 -6.445312 C 0.960938 -6.304688 0.929688 -6.183594 0.902344 -6.046875 C 0.886719 -5.910156 0.871094 -5.773438 0.855469 -5.648438 C 0.839844 -5.511719 0.824219 -5.375 0.824219 -5.238281 C 0.808594 -5.117188 0.824219 -4.976562 0.824219 -4.839844 C 0.824219 -4.703125 0.808594 -4.566406 0.824219 -4.429688 C 0.824219 -4.289062 0.839844 -4.152344 0.855469 -4.015625 C 0.871094 -3.878906 0.855469 -3.742188 0.886719 -3.617188 C 0.902344 -3.480469 0.960938 -3.34375 0.992188 -3.222656 C 1.023438 -3.085938 1.054688 -2.945312 1.097656 -2.824219 C 1.144531 -2.6875 1.160156 -2.550781 1.222656 -2.429688 C 1.265625 -2.304688 1.34375 -2.199219 1.40625 -2.078125 C 1.464844 -1.953125 1.511719 -1.816406 1.589844 -1.710938 C 1.664062 -1.589844 1.742188 -1.464844 1.816406 -1.375 C 1.894531 -1.253906 2.015625 -1.175781 2.105469 -1.085938 C 2.199219 -0.976562 2.273438 -0.855469 2.382812 -0.777344 C 2.488281 -0.6875 2.597656 -0.59375 2.703125 -0.519531 C 2.824219 -0.441406 2.945312 -0.398438 3.070312 -0.335938 C 3.191406 -0.273438 3.3125 -0.230469 3.4375 -0.167969 C 3.574219 -0.121094 3.695312 -0.0625 3.816406 -0.03125 C 3.953125 0.015625 4.09375 0.046875 4.214844 0.0625 C 4.351562 0.0898438 4.488281 0.0625 4.625 0.0625 C 4.765625 0.0625 4.902344 0.0625 5.023438 0.0625 C 5.175781 0.046875 5.3125 0.046875 5.4375 0.03125 C 5.574219 0 5.710938 -0.046875 5.832031 -0.078125 C 5.96875 -0.105469 6.09375 -0.136719 6.214844 -0.183594 C 6.351562 -0.230469 6.488281 -0.257812 6.597656 -0.304688 C 6.734375 -0.367188 6.839844 -0.441406 6.949219 -0.519531 C 7.085938 -0.59375 7.207031 -0.65625 7.300781 -0.734375 C 7.421875 -0.824219 7.527344 -0.917969 7.605469 -0.992188 C 7.710938 -1.097656 7.773438 -1.207031 7.816406 -1.3125 C 7.894531 -1.433594 7.925781 -1.558594 7.878906 -1.679688 Z M 7.878906 -1.679688 "/></g></g></g><g fill="#d9d9d9" fill-opacity="1"><g transform="translate(216.106853, 209.738775)"><g><path d="M 6.503906 -9.511719 C 6.445312 -9.589844 6.320312 -9.605469 6.167969 -9.621094 C 6.0625 -9.621094 5.910156 -9.605469 5.742188 -9.605469 C 5.621094 -9.605469 5.464844 -9.652344 5.3125 -9.652344 C 5.175781 -9.664062 5.039062 -9.621094 4.886719 -9.621094 C 4.75 -9.621094 4.613281 -9.636719 4.457031 -9.636719 C 4.320312 -9.636719 4.183594 -9.605469 4.03125 -9.605469 C 3.894531 -9.605469 3.757812 -9.664062 3.605469 -9.664062 C 3.464844 -9.664062 3.328125 -9.636719 3.175781 -9.636719 C 3.039062 -9.636719 2.902344 -9.664062 2.75 -9.664062 C 2.609375 -9.664062 2.472656 -9.652344 2.335938 -9.652344 C 2.183594 -9.652344 2.046875 -9.652344 1.910156 -9.652344 C 1.757812 -9.652344 1.617188 -9.652344 1.480469 -9.652344 C 1.328125 -9.652344 1.191406 -9.664062 1.054688 -9.664062 C 0.886719 -9.679688 0.75 -9.621094 0.640625 -9.621094 C 0.550781 -9.636719 0.441406 -9.664062 0.398438 -9.621094 C 0.257812 -9.511719 0.257812 -9.328125 0.273438 -9.207031 C 0.289062 -9.023438 0.214844 -8.839844 0.367188 -8.71875 C 0.472656 -8.628906 0.671875 -8.65625 0.839844 -8.644531 C 0.929688 -8.644531 1.085938 -8.644531 1.253906 -8.644531 C 1.375 -8.644531 1.527344 -8.628906 1.664062 -8.628906 C 1.800781 -8.628906 1.953125 -8.628906 2.09375 -8.628906 C 2.230469 -8.613281 2.382812 -8.566406 2.503906 -8.566406 C 2.75 -8.566406 2.792969 -8.75 2.933594 -8.597656 C 3.070312 -8.445312 2.945312 -8.398438 2.945312 -8.167969 C 2.945312 -8.046875 2.902344 -7.894531 2.902344 -7.757812 C 2.902344 -7.664062 2.945312 -7.527344 2.945312 -7.359375 C 2.933594 -7.238281 2.917969 -7.101562 2.917969 -6.949219 C 2.917969 -6.824219 2.902344 -6.6875 2.902344 -6.535156 C 2.902344 -6.414062 2.917969 -6.277344 2.917969 -6.125 C 2.917969 -6 2.933594 -5.863281 2.933594 -5.710938 C 2.933594 -5.589844 2.902344 -5.453125 2.902344 -5.3125 C 2.902344 -5.175781 2.902344 -5.039062 2.902344 -4.902344 C 2.902344 -4.765625 2.933594 -4.625 2.933594 -4.488281 C 2.933594 -4.351562 2.933594 -4.214844 2.933594 -4.078125 C 2.933594 -3.941406 2.902344 -3.800781 2.902344 -3.664062 C 2.902344 -3.527344 2.917969 -3.390625 2.917969 -3.269531 C 2.917969 -3.128906 2.917969 -2.992188 2.917969 -2.855469 C 2.917969 -2.71875 2.933594 -2.582031 2.933594 -2.441406 C 2.933594 -2.304688 2.917969 -2.167969 2.917969 -2.03125 C 2.917969 -1.894531 2.886719 -1.757812 2.886719 -1.632812 C 2.886719 -1.480469 2.917969 -1.34375 2.917969 -1.222656 C 2.917969 -1.070312 2.933594 -0.929688 2.945312 -0.808594 C 2.945312 -0.640625 2.945312 -0.503906 2.945312 -0.414062 C 2.945312 -0.167969 2.992188 -0.0898438 3.070312 -0.046875 C 3.144531 0.015625 3.269531 0.046875 3.464844 0.03125 C 3.664062 0.03125 3.773438 -0.03125 3.832031 -0.078125 C 3.925781 -0.136719 3.96875 -0.230469 3.953125 -0.425781 C 3.953125 -0.566406 3.941406 -0.703125 3.941406 -0.839844 C 3.941406 -0.976562 3.953125 -1.128906 3.953125 -1.265625 C 3.953125 -1.40625 3.925781 -1.558594 3.925781 -1.695312 C 3.925781 -1.832031 3.925781 -1.96875 3.925781 -2.105469 C 3.925781 -2.261719 3.941406 -2.398438 3.941406 -2.535156 C 3.941406 -2.609375 3.925781 -2.75 3.925781 -2.933594 C 3.925781 -3.054688 3.941406 -3.191406 3.925781 -3.34375 C 3.925781 -3.464844 3.941406 -3.605469 3.941406 -3.757812 C 3.941406 -3.878906 3.910156 -4.015625 3.910156 -4.167969 C 3.910156 -4.289062 3.925781 -4.429688 3.925781 -4.566406 C 3.925781 -4.703125 3.894531 -4.839844 3.894531 -4.976562 C 3.894531 -5.117188 3.925781 -5.253906 3.925781 -5.390625 C 3.925781 -5.527344 3.925781 -5.664062 3.925781 -5.800781 C 3.925781 -5.941406 3.894531 -6.0625 3.894531 -6.199219 C 3.894531 -6.335938 3.925781 -6.472656 3.925781 -6.613281 C 3.925781 -6.75 3.925781 -6.886719 3.925781 -7.007812 C 3.925781 -7.160156 3.878906 -7.285156 3.878906 -7.421875 C 3.878906 -7.558594 3.910156 -7.695312 3.910156 -7.816406 C 3.894531 -7.972656 3.910156 -8.109375 3.910156 -8.230469 C 3.910156 -8.398438 3.878906 -8.566406 3.878906 -8.65625 C 3.96875 -8.65625 4.152344 -8.644531 4.335938 -8.644531 C 4.472656 -8.644531 4.625 -8.613281 4.792969 -8.613281 C 4.949219 -8.613281 5.101562 -8.65625 5.253906 -8.65625 C 5.40625 -8.65625 5.558594 -8.644531 5.695312 -8.644531 C 5.910156 -8.644531 6.078125 -8.613281 6.152344 -8.613281 C 6.335938 -8.613281 6.445312 -8.6875 6.488281 -8.78125 C 6.550781 -8.871094 6.582031 -8.992188 6.582031 -9.175781 C 6.582031 -9.328125 6.550781 -9.453125 6.503906 -9.511719 Z M 6.503906 -9.511719 "/></g></g></g><g fill="#d9d9d9" fill-opacity="1"><g transform="translate(222.978114, 209.738775)"><g><path d="M 6.75 -2.945312 C 6.734375 -3.101562 6.6875 -3.238281 6.640625 -3.375 C 6.582031 -3.511719 6.550781 -3.648438 6.472656 -3.773438 C 6.398438 -3.894531 6.304688 -4.015625 6.214844 -4.121094 C 6.125 -4.230469 6 -4.320312 5.894531 -4.414062 C 5.789062 -4.503906 5.679688 -4.613281 5.558594 -4.6875 C 5.4375 -4.765625 5.296875 -4.839844 5.175781 -4.902344 C 5.023438 -4.960938 4.886719 -5.007812 4.78125 -5.039062 C 4.625 -5.085938 4.488281 -5.144531 4.382812 -5.175781 C 4.230469 -5.238281 4.109375 -5.296875 4 -5.34375 C 3.847656 -5.390625 3.726562 -5.4375 3.617188 -5.480469 C 3.527344 -5.511719 3.390625 -5.542969 3.238281 -5.605469 C 3.128906 -5.648438 2.992188 -5.695312 2.855469 -5.757812 C 2.75 -5.816406 2.640625 -5.910156 2.535156 -6 C 2.429688 -6.078125 2.320312 -6.152344 2.230469 -6.261719 C 2.136719 -6.351562 2.078125 -6.472656 2.015625 -6.597656 C 1.96875 -6.71875 1.925781 -6.855469 1.925781 -6.992188 C 1.925781 -7.132812 1.9375 -7.269531 1.953125 -7.40625 C 1.984375 -7.542969 2.03125 -7.664062 2.09375 -7.789062 C 2.136719 -7.910156 2.199219 -8.03125 2.273438 -8.140625 C 2.351562 -8.246094 2.457031 -8.335938 2.550781 -8.414062 C 2.65625 -8.503906 2.75 -8.613281 2.871094 -8.671875 C 2.992188 -8.734375 3.113281 -8.765625 3.253906 -8.796875 C 3.375 -8.824219 3.511719 -8.871094 3.648438 -8.871094 C 3.773438 -8.871094 3.910156 -8.855469 4.03125 -8.824219 C 4.152344 -8.8125 4.277344 -8.78125 4.398438 -8.734375 C 4.519531 -8.6875 4.640625 -8.644531 4.75 -8.582031 C 4.871094 -8.519531 4.976562 -8.445312 5.085938 -8.382812 C 5.191406 -8.308594 5.296875 -8.230469 5.390625 -8.152344 C 5.511719 -8.0625 5.574219 -7.941406 5.648438 -7.863281 C 5.773438 -7.726562 5.894531 -7.695312 6.015625 -7.695312 C 6.136719 -7.710938 6.230469 -7.773438 6.367188 -7.910156 C 6.472656 -8 6.703125 -8.183594 6.597656 -8.335938 C 6.519531 -8.460938 6.429688 -8.550781 6.367188 -8.65625 C 6.292969 -8.765625 6.214844 -8.855469 6.109375 -8.964844 C 6.046875 -9.007812 5.925781 -9.085938 5.742188 -9.191406 C 5.632812 -9.269531 5.511719 -9.328125 5.359375 -9.40625 C 5.238281 -9.453125 5.117188 -9.527344 4.960938 -9.574219 C 4.839844 -9.621094 4.703125 -9.679688 4.550781 -9.710938 C 4.414062 -9.742188 4.261719 -9.726562 4.109375 -9.742188 C 3.96875 -9.757812 3.816406 -9.757812 3.664062 -9.757812 C 3.527344 -9.757812 3.390625 -9.757812 3.238281 -9.742188 C 3.101562 -9.710938 2.960938 -9.679688 2.824219 -9.636719 C 2.6875 -9.589844 2.566406 -9.511719 2.441406 -9.453125 C 2.304688 -9.375 2.183594 -9.316406 2.0625 -9.222656 C 1.953125 -9.148438 1.847656 -9.039062 1.742188 -8.933594 C 1.648438 -8.839844 1.527344 -8.75 1.433594 -8.628906 C 1.359375 -8.519531 1.3125 -8.367188 1.253906 -8.246094 C 1.191406 -8.109375 1.113281 -7.984375 1.070312 -7.847656 C 1.023438 -7.710938 0.992188 -7.574219 0.976562 -7.421875 C 0.945312 -7.285156 0.929688 -7.144531 0.929688 -6.992188 C 0.929688 -6.839844 0.960938 -6.703125 0.976562 -6.582031 C 1.007812 -6.429688 1.023438 -6.292969 1.070312 -6.167969 C 1.128906 -6.03125 1.191406 -5.894531 1.253906 -5.789062 C 1.328125 -5.664062 1.433594 -5.558594 1.527344 -5.453125 C 1.617188 -5.359375 1.726562 -5.253906 1.832031 -5.175781 C 1.9375 -5.085938 2.078125 -5.023438 2.183594 -4.960938 C 2.320312 -4.886719 2.441406 -4.824219 2.566406 -4.78125 C 2.71875 -4.703125 2.839844 -4.65625 2.960938 -4.625 C 3.070312 -4.582031 3.191406 -4.535156 3.296875 -4.503906 C 3.421875 -4.457031 3.542969 -4.414062 3.648438 -4.382812 C 3.773438 -4.335938 3.894531 -4.289062 4 -4.261719 C 4.121094 -4.214844 4.230469 -4.167969 4.351562 -4.121094 C 4.429688 -4.09375 4.535156 -4.03125 4.6875 -3.953125 C 4.792969 -3.894531 4.886719 -3.800781 5.007812 -3.726562 C 5.101562 -3.664062 5.222656 -3.605469 5.3125 -3.511719 C 5.421875 -3.4375 5.496094 -3.328125 5.574219 -3.222656 C 5.648438 -3.128906 5.710938 -3.007812 5.757812 -2.886719 C 5.789062 -2.777344 5.816406 -2.65625 5.816406 -2.519531 C 5.816406 -2.367188 5.800781 -2.230469 5.773438 -2.09375 C 5.742188 -1.953125 5.664062 -1.832031 5.589844 -1.695312 C 5.511719 -1.574219 5.421875 -1.480469 5.328125 -1.375 C 5.222656 -1.265625 5.117188 -1.175781 4.992188 -1.097656 C 4.871094 -1.023438 4.75 -0.960938 4.613281 -0.917969 C 4.472656 -0.871094 4.335938 -0.824219 4.199219 -0.792969 C 4.0625 -0.777344 3.925781 -0.761719 3.773438 -0.761719 C 3.617188 -0.761719 3.464844 -0.761719 3.328125 -0.792969 C 3.191406 -0.824219 3.054688 -0.902344 2.933594 -0.960938 C 2.792969 -1.023438 2.65625 -1.085938 2.550781 -1.160156 C 2.429688 -1.253906 2.335938 -1.375 2.230469 -1.480469 C 2.121094 -1.589844 2 -1.664062 1.910156 -1.769531 C 1.785156 -1.910156 1.695312 -2.03125 1.632812 -2.09375 C 1.511719 -2.230469 1.433594 -2.273438 1.34375 -2.246094 C 1.265625 -2.230469 1.160156 -2.199219 1.039062 -2.09375 C 0.917969 -1.984375 0.839844 -1.910156 0.777344 -1.832031 C 0.71875 -1.742188 0.71875 -1.648438 0.839844 -1.496094 C 0.871094 -1.449219 0.929688 -1.328125 1.054688 -1.175781 C 1.113281 -1.085938 1.222656 -0.992188 1.3125 -0.886719 C 1.40625 -0.792969 1.496094 -0.703125 1.601562 -0.609375 C 1.695312 -0.535156 1.816406 -0.488281 1.925781 -0.414062 C 2.03125 -0.335938 2.121094 -0.230469 2.246094 -0.167969 C 2.351562 -0.121094 2.488281 -0.0898438 2.625 -0.0625 C 2.734375 -0.015625 2.855469 0.0625 2.976562 0.0898438 C 3.101562 0.121094 3.238281 0.136719 3.375 0.152344 C 3.496094 0.152344 3.632812 0.152344 3.773438 0.152344 C 3.910156 0.152344 4.046875 0.136719 4.167969 0.121094 C 4.320312 0.105469 4.445312 0.0898438 4.582031 0.0625 C 4.71875 0.03125 4.839844 0 4.976562 -0.046875 C 5.101562 -0.0898438 5.238281 -0.136719 5.359375 -0.199219 C 5.480469 -0.257812 5.574219 -0.367188 5.679688 -0.441406 C 5.789062 -0.519531 5.925781 -0.582031 6.015625 -0.671875 C 6.125 -0.777344 6.199219 -0.886719 6.277344 -0.992188 C 6.351562 -1.097656 6.445312 -1.207031 6.519531 -1.328125 C 6.582031 -1.449219 6.640625 -1.574219 6.671875 -1.710938 C 6.71875 -1.832031 6.75 -1.96875 6.765625 -2.105469 C 6.796875 -2.246094 6.808594 -2.382812 6.808594 -2.519531 C 6.808594 -2.671875 6.78125 -2.808594 6.75 -2.945312 Z M 6.75 -2.945312 "/></g></g></g></svg>