<svg xmlns="http://www.w3.org/2000/svg" xmlns:xlink="http://www.w3.org/1999/xlink" width="500" zoomAndPan="magnify" viewBox="0 0 375 374.999991" height="500" preserveAspectRatio="xMidYMid meet" version="1.0"><defs><clipPath id="1fbc64fa29"><path d="M 145.832031 145.832031 L 229.167969 145.832031 L 229.167969 229.167969 L 145.832031 229.167969 Z M 145.832031 145.832031 " clip-rule="nonzero"/></clipPath><clipPath id="35153a4655"><path d="M 187.5 145.832031 C 164.488281 145.832031 145.832031 164.488281 145.832031 187.5 C 145.832031 210.511719 164.488281 229.167969 187.5 229.167969 C 210.511719 229.167969 229.167969 210.511719 229.167969 187.5 C 229.167969 164.488281 210.511719 145.832031 187.5 145.832031 " clip-rule="nonzero"/></clipPath><clipPath id="45567cc915"><path d="M 161 158.585938 L 214.964844 158.585938 L 214.964844 216.335938 L 161 216.335938 Z M 161 158.585938 " clip-rule="nonzero"/></clipPath></defs><g clip-path="url(#1fbc64fa29)"><g clip-path="url(#35153a4655)"><path fill="#293041" d="M 145.832031 145.832031 L 229.167969 145.832031 L 229.167969 229.167969 L 145.832031 229.167969 Z M 145.832031 145.832031 " fill-opacity="1" fill-rule="nonzero"/></g></g><g clip-path="url(#45567cc915)"><path fill="#d9d9d9" d="M 208.011719 172.488281 C 203.5625 167.679688 197.515625 164.71875 190.992188 164.148438 L 190.917969 164.980469 C 204.144531 166.140625 214.117188 176.976562 214.117188 190.1875 C 214.117188 204.019531 202.890625 215.292969 189.015625 215.488281 L 189.015625 199.058594 L 188.175781 199.058594 L 188.175781 215.488281 C 174.351562 215.234375 163.179688 203.984375 163.179688 190.1875 C 163.179688 189.890625 163.1875 189.589844 163.199219 189.296875 C 163.332031 189.304688 163.484375 189.308594 163.664062 189.308594 C 164.628906 189.308594 166.230469 189.148438 168.246094 188.355469 C 171.238281 187.175781 175.769531 184.300781 180.339844 177.289062 C 189.082031 163.882812 187.722656 159.089844 187.660156 158.894531 L 187.5625 158.589844 L 187.242188 158.601562 C 187.089844 158.605469 183.433594 158.742188 178.84375 160.042969 C 174.59375 161.246094 168.738281 163.722656 165.003906 168.675781 C 161.105469 173.84375 160.207031 180.660156 162.339844 188.933594 L 162.367188 189.035156 C 162.347656 189.417969 162.339844 189.800781 162.339844 190.1875 C 162.339844 204.601562 174.140625 216.328125 188.648438 216.328125 C 203.15625 216.328125 214.957031 204.601562 214.957031 190.1875 C 214.957031 183.609375 212.492188 177.324219 208.011719 172.488281 Z M 165.671875 169.179688 C 171.949219 160.859375 184.582031 159.617188 186.902344 159.457031 C 187.015625 160.703125 186.867188 165.738281 179.632812 176.832031 C 175.207031 183.617188 170.867188 186.40625 168.003906 187.550781 C 165.722656 188.460938 163.996094 188.5 163.242188 188.457031 C 163.664062 182.132812 166.40625 176.296875 171.070312 171.875 L 170.488281 171.269531 C 166.183594 175.355469 163.460938 180.605469 162.621094 186.339844 C 161.292969 179.398438 162.316406 173.636719 165.671875 169.179688 Z M 165.671875 169.179688 " fill-opacity="1" fill-rule="nonzero"/></g><path fill="#d9d9d9" d="M 191.015625 192.472656 C 189.28125 193.996094 189.382812 196.332031 189.386719 196.429688 L 189.402344 196.726562 L 189.6875 196.808594 C 190.34375 196.996094 190.96875 197.089844 191.566406 197.089844 C 192.488281 197.089844 193.339844 196.863281 194.105469 196.414062 C 196.457031 195.03125 197.15625 192.042969 197.183594 191.914062 L 197.28125 191.488281 L 196.847656 191.410156 C 194.285156 190.964844 192.320312 191.324219 191.015625 192.472656 Z M 193.671875 195.695312 C 192.695312 196.269531 191.539062 196.398438 190.234375 196.085938 C 190.269531 195.476562 190.476562 194.058594 191.578125 193.09375 C 192.609375 192.191406 194.175781 191.878906 196.238281 192.164062 C 195.964844 192.988281 195.222656 194.789062 193.671875 195.695312 Z M 193.671875 195.695312 " fill-opacity="1" fill-rule="nonzero"/><path fill="#d9d9d9" d="M 185.964844 188.03125 C 186.3125 190.304688 188.339844 191.484375 188.429688 191.535156 L 188.6875 191.683594 L 188.914062 191.488281 C 190.226562 190.355469 190.921875 189.042969 190.976562 187.585938 C 191.085938 184.871094 188.9375 182.667969 188.84375 182.574219 L 188.535156 182.261719 L 188.234375 182.585938 C 186.464844 184.484375 185.703125 186.3125 185.964844 188.03125 Z M 188.539062 183.503906 C 189.089844 184.175781 190.207031 185.773438 190.132812 187.558594 C 190.089844 188.6875 189.570312 189.722656 188.597656 190.644531 C 188.101562 190.285156 187.019531 189.351562 186.796875 187.902344 C 186.589844 186.550781 187.175781 185.074219 188.539062 183.503906 Z M 188.539062 183.503906 " fill-opacity="1" fill-rule="nonzero"/><path fill="#d9d9d9" d="M 187.792969 196.726562 L 187.808594 196.429688 C 187.8125 196.332031 187.914062 193.996094 186.179688 192.472656 C 184.875 191.324219 182.910156 190.964844 180.347656 191.414062 L 179.910156 191.488281 L 180.007812 191.917969 C 180.039062 192.042969 180.734375 195.03125 183.089844 196.414062 C 183.855469 196.867188 184.703125 197.089844 185.628906 197.089844 C 186.222656 197.089844 186.851562 197 187.503906 196.808594 Z M 183.523438 195.695312 C 181.976562 194.789062 181.230469 192.988281 180.957031 192.164062 C 183.019531 191.878906 184.585938 192.191406 185.617188 193.09375 C 186.71875 194.058594 186.925781 195.476562 186.964844 196.085938 C 185.65625 196.398438 184.5 196.269531 183.523438 195.695312 Z M 183.523438 195.695312 " fill-opacity="1" fill-rule="nonzero"/><path fill="#d9d9d9" d="M 179.691406 198.660156 L 182.480469 202.160156 C 183.652344 203.632812 184.367188 205.574219 185.058594 207.449219 C 185.3125 208.136719 185.574219 208.847656 185.851562 209.507812 L 186.628906 209.1875 C 186.359375 208.542969 186.113281 207.871094 185.851562 207.164062 C 185.136719 205.222656 184.398438 203.21875 183.140625 201.640625 L 180.351562 198.140625 C 179.429688 196.984375 177.761719 196.761719 176.570312 197.605469 L 173.859375 189.875 C 173.550781 188.992188 172.625 188.488281 171.710938 188.707031 C 170.765625 188.929688 170.160156 189.851562 170.335938 190.804688 C 170.335938 190.804688 171.410156 196.320312 171.417969 196.363281 C 171.976562 199.234375 172.992188 201.851562 174.4375 204.136719 C 175.1875 205.328125 176.074219 206.453125 177.074219 207.492188 C 177.523438 207.957031 178.320312 209.203125 178.871094 210.160156 L 179.601562 209.746094 C 179.007812 208.710938 178.183594 207.433594 177.679688 206.914062 C 176.722656 205.917969 175.871094 204.832031 175.148438 203.691406 C 173.757812 201.496094 172.78125 198.976562 172.246094 196.214844 C 172.242188 196.207031 172.242188 196.207031 171.164062 190.652344 C 171.070312 190.140625 171.394531 189.640625 171.90625 189.523438 C 172.398438 189.40625 172.898438 189.675781 173.066406 190.152344 L 176.226562 198.9375 L 180.335938 204.09375 L 180.996094 203.574219 L 176.886719 198.417969 L 176.976562 198.347656 C 177.8125 197.6875 179.027344 197.828125 179.691406 198.660156 Z M 179.691406 198.660156 " fill-opacity="1" fill-rule="nonzero"/><path fill="#d9d9d9" d="M 205.589844 188.707031 C 204.671875 188.492188 203.75 188.992188 203.4375 189.878906 L 200.730469 197.605469 C 200.171875 197.207031 199.492188 197.035156 198.804688 197.113281 C 198.066406 197.199219 197.410156 197.566406 196.949219 198.140625 L 194.15625 201.644531 C 192.902344 203.21875 192.164062 205.222656 191.449219 207.164062 C 191.1875 207.871094 190.941406 208.542969 190.671875 209.1875 L 191.449219 209.507812 C 191.722656 208.847656 191.984375 208.136719 192.238281 207.453125 C 192.933594 205.574219 193.648438 203.632812 194.820312 202.164062 L 197.609375 198.660156 C 197.929688 198.257812 198.390625 198.003906 198.902344 197.945312 C 199.414062 197.886719 199.921875 198.027344 200.324219 198.347656 L 200.414062 198.417969 L 196.304688 203.574219 L 196.964844 204.09375 L 201.074219 198.9375 L 204.234375 190.152344 C 204.402344 189.675781 204.902344 189.402344 205.394531 189.519531 C 205.90625 189.640625 206.230469 190.140625 206.136719 190.648438 C 206.136719 190.648438 205.113281 195.925781 205.058594 196.191406 L 205.058594 196.203125 C 204.519531 198.976562 203.539062 201.496094 202.152344 203.691406 C 201.429688 204.832031 200.578125 205.917969 199.617188 206.914062 C 199.117188 207.433594 198.292969 208.710938 197.699219 209.746094 L 198.429688 210.160156 C 198.980469 209.203125 199.777344 207.960938 200.226562 207.492188 C 201.226562 206.453125 202.113281 205.328125 202.863281 204.136719 C 204.308594 201.851562 205.324219 199.234375 205.882812 196.363281 C 205.90625 196.253906 206.042969 195.558594 206.964844 190.800781 C 207.136719 189.851562 206.535156 188.933594 205.589844 188.707031 Z M 205.589844 188.707031 " fill-opacity="1" fill-rule="nonzero"/></svg>